<svg width="40" height="40" viewBox="0 0 40 40" fill="none" xmlns="http://www.w3.org/2000/svg">
<path d="M20.0065 0.00585938C11.6567 0.00585938 9.21471 0.0144731 8.74003 0.0538504C7.02651 0.196285 5.96025 0.466081 4.79862 1.04443C3.9034 1.48897 3.19738 2.00425 2.50059 2.72658C1.2316 4.04387 0.462511 5.66449 0.184102 7.5909C0.048743 8.5261 0.00936576 8.71684 0.00136726 13.4938C-0.00170908 15.0861 0.00136726 17.1817 0.00136726 19.9926C0.00136726 28.3356 0.0105963 30.7752 0.0505888 31.2489C0.189024 32.9163 0.450514 33.9653 1.00426 35.1128C2.06252 37.3093 4.08368 38.9582 6.46477 39.5735C7.28923 39.7858 8.19983 39.9027 9.36884 39.958C9.86413 39.9796 14.9124 39.995 19.9638 39.995C25.0151 39.995 30.0665 39.9888 30.5495 39.9642C31.9031 39.9005 32.6891 39.795 33.5581 39.5704C34.7388 39.2677 35.8391 38.7108 36.7822 37.9388C37.7254 37.1667 38.4886 36.1981 39.0187 35.1005C39.5616 33.9807 39.837 32.8917 39.9616 31.3114C39.9886 30.9668 40 25.4734 40 19.9873C40 14.5004 39.9877 9.01709 39.9606 8.67254C39.8345 7.06669 39.5592 5.98689 38.9986 4.84557C38.5387 3.91128 38.0281 3.21356 37.2867 2.50016C35.9638 1.2364 34.3457 0.467311 32.4171 0.18921C31.4828 0.054158 31.2967 0.0141655 26.5161 0.00585938H20.0065Z" fill="url(#paint0_radial_14748_1985)"/>
<path d="M20.0065 0.00585938C11.6567 0.00585938 9.21471 0.0144731 8.74003 0.0538504C7.02651 0.196285 5.96025 0.466081 4.79862 1.04443C3.9034 1.48897 3.19738 2.00425 2.50059 2.72658C1.2316 4.04387 0.462511 5.66449 0.184102 7.5909C0.048743 8.5261 0.00936576 8.71684 0.00136726 13.4938C-0.00170908 15.0861 0.00136726 17.1817 0.00136726 19.9926C0.00136726 28.3356 0.0105963 30.7752 0.0505888 31.2489C0.189024 32.9163 0.450514 33.9653 1.00426 35.1128C2.06252 37.3093 4.08368 38.9582 6.46477 39.5735C7.28923 39.7858 8.19983 39.9027 9.36884 39.958C9.86413 39.9796 14.9124 39.995 19.9638 39.995C25.0151 39.995 30.0665 39.9888 30.5495 39.9642C31.9031 39.9005 32.6891 39.795 33.5581 39.5704C34.7388 39.2677 35.8391 38.7108 36.7822 37.9388C37.7254 37.1667 38.4886 36.1981 39.0187 35.1005C39.5616 33.9807 39.837 32.8917 39.9616 31.3114C39.9886 30.9668 40 25.4734 40 19.9873C40 14.5004 39.9877 9.01709 39.9606 8.67254C39.8345 7.06669 39.5592 5.98689 38.9986 4.84557C38.5387 3.91128 38.0281 3.21356 37.2867 2.50016C35.9638 1.2364 34.3457 0.467311 32.4171 0.18921C31.4828 0.054158 31.2967 0.0141655 26.5161 0.00585938H20.0065Z" fill="url(#paint1_radial_14748_1985)"/>
<path d="M19.9978 5.23633C15.9875 5.23633 15.4842 5.25386 13.9091 5.32554C12.3371 5.39753 11.2641 5.64641 10.3252 6.01157C9.354 6.38873 8.53016 6.89325 7.70939 7.71432C6.888 8.53509 6.38348 9.35894 6.00509 10.3298C5.63901 11.269 5.38982 12.3424 5.31907 13.9138C5.24893 15.4889 5.23047 15.9925 5.23047 20.0028C5.23047 24.0131 5.24831 24.5149 5.31968 26.0899C5.39198 27.662 5.64085 28.735 6.00571 29.6739C6.38318 30.6451 6.8877 31.4689 7.70877 32.2897C8.52923 33.1111 9.35308 33.6168 10.3237 33.994C11.2632 34.3592 12.3365 34.608 13.9082 34.68C15.4833 34.7517 15.9863 34.7692 19.9963 34.7692C24.0069 34.7692 24.5087 34.7517 26.0838 34.68C27.6558 34.608 28.7301 34.3592 29.6696 33.994C30.6405 33.6168 31.4631 33.1111 32.2835 32.2897C33.1049 31.4689 33.6094 30.6451 33.9878 29.6742C34.3508 28.735 34.6 27.6616 34.6739 26.0903C34.7446 24.5152 34.7631 24.0131 34.7631 20.0028C34.7631 15.9925 34.7446 15.4892 34.6739 13.9141C34.6 12.3421 34.3508 11.269 33.9878 10.3301C33.6094 9.35894 33.1049 8.53509 32.2835 7.71432C31.4622 6.89294 30.6408 6.38842 29.6686 6.01157C28.7273 5.64641 27.6536 5.39753 26.0816 5.32554C24.5065 5.25386 24.0051 5.23633 19.9935 5.23633H19.9978ZM18.6732 7.89737C19.0663 7.89675 19.505 7.89737 19.9978 7.89737C23.9405 7.89737 24.4078 7.91152 25.9647 7.98227C27.4045 8.04811 28.1858 8.28868 28.7064 8.49079C29.3955 8.75844 29.8868 9.07838 30.4033 9.5952C30.9201 10.112 31.24 10.6042 31.5083 11.2933C31.7104 11.8132 31.9513 12.5946 32.0168 14.0344C32.0876 15.591 32.103 16.0586 32.103 19.9994C32.103 23.9402 32.0876 24.4078 32.0168 25.9644C31.951 27.4042 31.7104 28.1856 31.5083 28.7055C31.2407 29.3946 30.9201 29.8852 30.4033 30.4017C29.8864 30.9186 29.3958 31.2385 28.7064 31.5062C28.1865 31.7092 27.4045 31.9492 25.9647 32.015C24.4081 32.0857 23.9405 32.1011 19.9978 32.1011C16.0549 32.1011 15.5876 32.0857 14.031 32.015C12.5912 31.9485 11.8098 31.708 11.289 31.5058C10.5999 31.2382 10.1077 30.9183 9.59088 30.4014C9.07405 29.8846 8.75411 29.3936 8.48586 28.7042C8.28374 28.1843 8.04286 27.4029 7.97734 25.9632C7.90658 24.4066 7.89243 23.939 7.89243 19.9957C7.89243 16.0524 7.90658 15.5873 7.97734 14.0307C8.04317 12.5909 8.28374 11.8096 8.48586 11.289C8.7535 10.5999 9.07405 10.1077 9.59088 9.59089C10.1077 9.07407 10.5999 8.75413 11.289 8.48587C11.8095 8.28283 12.5912 8.04288 14.031 7.97674C15.3932 7.91521 15.9211 7.89675 18.6732 7.89367V7.89737ZM27.8801 10.3492C27.5296 10.3492 27.1869 10.4532 26.8955 10.6479C26.6041 10.8426 26.377 11.1194 26.2429 11.4432C26.1088 11.767 26.0738 12.1234 26.1422 12.4671C26.2106 12.8109 26.3794 13.1266 26.6273 13.3744C26.8752 13.6222 27.191 13.7909 27.5347 13.8592C27.8785 13.9275 28.2348 13.8923 28.5586 13.7581C28.8824 13.6239 29.1591 13.3967 29.3537 13.1052C29.5483 12.8137 29.6522 12.4711 29.652 12.1206C29.652 11.1423 28.8583 10.3486 27.8801 10.3486V10.3492ZM19.9978 12.4196C15.81 12.4196 12.4147 15.815 12.4147 20.0028C12.4147 24.1906 15.81 27.5844 19.9978 27.5844C24.1857 27.5844 27.5801 24.1906 27.5801 20.0028C27.5801 15.815 24.1854 12.4196 19.9975 12.4196H19.9978ZM19.9978 15.0806C22.7161 15.0806 24.92 17.2842 24.92 20.0028C24.92 22.721 22.7161 24.9249 19.9978 24.9249C17.2793 24.9249 15.0757 22.721 15.0757 20.0028C15.0757 17.2842 17.2793 15.0806 19.9978 15.0806Z" fill="white"/>
<defs>
<radialGradient id="paint0_radial_14748_1985" cx="0" cy="0" r="1" gradientUnits="userSpaceOnUse" gradientTransform="translate(10.6251 43.075) rotate(-90) scale(39.6322 36.8711)">
<stop stop-color="#FFDD55"/>
<stop offset="0.1" stop-color="#FFDD55"/>
<stop offset="0.5" stop-color="#FF543E"/>
<stop offset="1" stop-color="#C837AB"/>
</radialGradient>
<radialGradient id="paint1_radial_14748_1985" cx="0" cy="0" r="1" gradientUnits="userSpaceOnUse" gradientTransform="translate(-6.70021 2.88661) rotate(78.6776) scale(17.7159 73.0442)">
<stop stop-color="#3771C8"/>
<stop offset="0.128" stop-color="#3771C8"/>
<stop offset="1" stop-color="#6600FF" stop-opacity="0"/>
</radialGradient>
</defs>
</svg>
