<svg width="36" height="40" viewBox="0 0 36 40" fill="none" xmlns="http://www.w3.org/2000/svg">
<path d="M25.496 13.8647C27.9918 15.6362 31.0492 16.6785 34.3514 16.6785V10.3689C33.7264 10.3691 33.1031 10.3044 32.4917 10.1757V15.1423C29.1898 15.1423 26.1327 14.1 23.6363 12.3286V25.2046C23.6363 31.6458 18.3776 36.8671 11.8911 36.8671C9.4708 36.8671 7.22124 36.1406 5.35254 34.8945C7.48536 37.0599 10.4597 38.4032 13.7504 38.4032C20.2373 38.4032 25.4963 33.1819 25.4963 26.7404V13.8647H25.496ZM27.7901 7.49913C26.5147 6.1155 25.6772 4.32741 25.496 2.35061V1.53906H23.7337C24.1773 4.05158 25.6903 6.19813 27.7901 7.49913ZM9.45528 29.9517C8.74266 29.0239 8.35756 27.889 8.35929 26.722C8.35929 23.776 10.7646 21.3874 13.7321 21.3874C14.2851 21.3873 14.8348 21.4713 15.3619 21.6374V15.1868C14.7459 15.103 14.1243 15.0674 13.503 15.0805V20.1013C12.9755 19.9352 12.4255 19.8509 11.8724 19.8514C8.9049 19.8514 6.49974 22.2398 6.49974 25.1862C6.49974 27.2694 7.70198 29.0731 9.45528 29.9517Z" fill="#FF004F"/>
<path d="M23.6362 12.3285C26.1326 14.0998 29.1896 15.1421 32.4916 15.1421V10.1756C30.6485 9.78577 29.0168 8.8294 27.79 7.49914C25.6901 6.198 24.1772 4.05145 23.7336 1.53906H19.1045V26.7402C19.094 29.6781 16.6928 32.057 13.7317 32.057C11.9867 32.057 10.4365 31.2311 9.45476 29.9517C7.7016 29.0731 6.49935 27.2693 6.49935 25.1863C6.49935 22.2402 8.90451 19.8515 11.872 19.8515C12.4406 19.8515 12.9885 19.9394 13.5026 20.1014V15.0806C7.12999 15.2113 2.00488 20.3816 2.00488 26.7403C2.00488 29.9145 3.28115 32.7921 5.35255 34.8946C7.22126 36.1406 9.47081 36.8672 11.8911 36.8672C18.3778 36.8672 23.6363 31.6457 23.6363 25.2046V12.3285H23.6362Z" fill="black"/>
<path d="M32.4917 10.1725V8.82961C30.8297 8.83211 29.2003 8.36993 27.7902 7.49592C29.0385 8.85293 30.6822 9.78862 32.4917 10.1725ZM23.7337 1.53598C23.6914 1.29586 23.6589 1.05417 23.6364 0.811545V0H17.2448V25.2014C17.2346 28.1389 14.8336 30.5178 11.8722 30.5178C11.0028 30.5178 10.1819 30.3129 9.45494 29.9488C10.4367 31.228 11.9869 32.0538 13.7319 32.0538C16.6927 32.0538 19.0943 29.6752 19.1046 26.7372V1.53598H23.7337ZM13.503 15.0775V13.6479C12.969 13.5754 12.4305 13.539 11.8914 13.5393C5.4042 13.5392 0.145508 18.7607 0.145508 25.2014C0.145508 29.2393 2.21227 32.798 5.35286 34.8913C3.28146 32.7889 2.00519 29.9112 2.00519 26.7371C2.00519 20.3785 7.13017 15.2082 13.503 15.0775Z" fill="#00F2EA"/>
</svg>
