<svg width="60" height="18" viewBox="0 0 60 18" fill="none" xmlns="http://www.w3.org/2000/svg">
<path d="M3.0868 0.558935C1.85937 1.0724 0.509695 2.52146 0.0836939 4.34408C-0.456787 6.6514 1.79026 7.62578 1.97385 7.30788C2.18988 6.93083 1.56992 6.80427 1.44332 5.6079C1.28043 4.06081 1.99806 2.33232 2.90362 1.57387C3.07254 1.43523 3.06434 1.63088 3.06434 1.99155C3.06434 2.642 3.02805 8.46149 3.02805 9.67645C3.02805 11.3211 2.96065 11.839 2.83622 12.3504C2.71394 12.8704 2.51608 13.2211 2.66514 13.3576C2.83405 13.5083 3.55168 13.1494 3.96773 12.5689C4.46544 11.8735 4.64084 11.0378 4.67324 10.1308C4.70996 9.03851 4.70782 7.30182 4.70996 6.31319C4.70996 5.40402 4.72421 2.74608 4.6957 1.14586C4.6875 0.754588 3.59876 0.344687 3.0868 0.558935ZM59.6765 9.19318C59.5011 9.19318 59.4177 9.37672 59.3503 9.68468C59.1179 10.7588 58.8734 11.0011 58.5571 11.0011C58.2046 11.0011 57.8883 10.4695 57.8049 9.40523C57.7419 8.56949 57.7518 7.02846 57.8335 5.49562C57.8499 5.18164 57.7639 4.87021 56.9197 4.56228C56.555 4.43184 56.0267 4.23618 55.764 4.87196C55.0196 6.66394 54.7301 8.09053 54.6606 8.66754C54.659 8.69776 54.6221 8.70211 54.6156 8.63298C54.5733 8.16999 54.4752 7.32819 54.4631 5.55869C54.4588 5.21662 54.3875 4.92074 54.0043 4.68019C53.7576 4.52555 53.0071 4.24827 52.7358 4.57654C52.5034 4.84559 52.2325 5.56731 51.9491 6.42336C51.7205 7.12045 51.5616 7.59339 51.5616 7.59339C51.5616 7.59339 51.5632 5.71372 51.5676 5.00024C51.5676 4.73115 51.384 4.64174 51.3291 4.62532C51.0781 4.55192 50.5826 4.43184 50.3748 4.43184C50.116 4.43184 50.0546 4.57654 50.0546 4.78644C50.0546 4.81278 50.0119 7.25867 50.0119 8.96902V9.20957C49.871 9.99653 49.4066 11.0646 48.9028 11.0646C48.399 11.0646 48.1605 10.618 48.1605 8.57985C48.1605 7.39126 48.1973 6.87385 48.2137 6.01349C48.2236 5.51807 48.2439 5.13713 48.2422 5.04947C48.2379 4.78644 47.7791 4.65169 47.5669 4.60287C47.3531 4.55192 47.1673 4.53549 47.0208 4.54155C46.8169 4.55406 46.6722 4.68839 46.6722 4.87627V5.16133C46.4091 4.74582 45.9827 4.45603 45.6975 4.37266C44.935 4.14636 44.1374 4.34804 43.536 5.18766C43.059 5.85671 42.7713 6.61253 42.6594 7.69922C42.5756 8.49434 42.6024 9.29943 42.751 9.9801C42.5717 10.7485 42.2412 11.0646 41.8804 11.0646C41.3542 11.0646 40.9753 10.2082 41.0181 8.72627C41.0488 7.75234 41.2423 7.0695 41.4562 6.0787C41.5482 5.65671 41.4726 5.43689 41.2872 5.22265C41.1179 5.03088 40.755 4.93111 40.2352 5.05119C39.8659 5.13888 39.334 5.23259 38.8505 5.30428C38.8505 5.30428 38.8791 5.18766 38.9037 4.9821C39.0281 3.90361 37.8556 3.99129 37.4823 4.33595C37.2581 4.54155 37.1051 4.78427 37.0481 5.22051C36.9565 5.91372 37.5212 6.23979 37.5212 6.23979C37.3358 7.08764 36.883 8.19632 36.4121 8.99753C36.1611 9.42771 35.9693 9.74386 35.7209 10.082C35.7186 9.95766 35.7186 9.8311 35.7186 9.70713C35.7143 7.92338 35.7368 6.51924 35.7471 6.01349C35.7575 5.51807 35.7778 5.14707 35.7778 5.05939C35.7735 4.86762 35.6616 4.79247 35.4248 4.70264C35.217 4.62143 34.9703 4.56228 34.7154 4.54155C34.3953 4.51735 34.1996 4.68839 34.2056 4.8901V5.16133C33.9408 4.74582 33.5143 4.45603 33.2331 4.37266C32.4684 4.14636 31.6713 4.34804 31.0699 5.18766C30.5946 5.85671 30.2805 6.79222 30.1907 7.68885C30.1094 8.5289 30.1237 9.23808 30.2377 9.83758C30.1155 10.4366 29.7668 11.0646 29.3715 11.0646C28.8678 11.0646 28.58 10.618 28.58 8.57985C28.58 7.39126 28.6168 6.87385 28.6353 6.01349C28.6453 5.51807 28.6638 5.13713 28.6617 5.04947C28.6595 4.78644 28.2011 4.65169 27.9868 4.60287C27.7648 4.55017 27.5708 4.53378 27.4239 4.54155C27.2282 4.55794 27.0917 4.73115 27.0917 4.86373V5.16133C26.8268 4.74582 26.4004 4.45603 26.117 4.37266C25.3544 4.14636 24.5634 4.35238 23.9576 5.18766C23.5623 5.73232 23.2422 6.33742 23.0772 7.67891C23.0322 8.06633 23.0098 8.42871 23.0119 8.76731C22.8546 9.72916 22.1595 10.8383 21.5927 10.8383C21.2583 10.8383 20.9403 10.1939 20.9403 8.81827C20.9403 6.98787 21.0543 4.37871 21.0747 4.12605C21.0747 4.12605 21.7923 4.11351 21.9331 4.11179C22.29 4.10962 22.6162 4.11785 23.0914 4.09323C23.332 4.08115 23.5623 3.22293 23.3135 3.11497C23.2033 3.06787 22.4123 3.02511 22.0981 3.01908C21.8333 3.01303 21.101 2.95818 21.101 2.95818C21.101 2.95818 21.1667 1.22753 21.1809 1.04612C21.193 0.89106 20.9973 0.81377 20.8833 0.766671C20.6076 0.64876 20.3609 0.593498 20.0715 0.534316C19.6658 0.450969 19.4843 0.532599 19.4498 0.872498C19.3966 1.38862 19.3681 2.90117 19.3681 2.90117C19.0704 2.90117 18.0612 2.84157 17.7652 2.84157C17.4904 2.84157 17.1923 4.02411 17.5738 4.03836C18.0124 4.05478 18.7728 4.07121 19.2782 4.08501C19.2782 4.08501 19.2558 6.73734 19.2558 7.55452V7.80718C18.9767 9.25622 17.9998 10.0393 17.9998 10.0393C18.2098 9.07916 17.7816 8.35958 17.007 7.75234C16.7214 7.52601 16.1589 7.09972 15.5286 6.63715C15.5286 6.63715 15.8936 6.27652 16.2177 5.5548C16.4462 5.043 16.4566 4.45429 15.8936 4.32559C14.9639 4.11179 14.1992 4.79464 13.9689 5.52413C13.7935 6.08689 13.8855 6.5067 14.2338 6.94077L14.3132 7.03882C14.1054 7.44221 13.816 7.98641 13.5732 8.4084C12.8944 9.5806 12.3824 10.5062 11.9971 10.5062C11.6873 10.5062 11.6912 9.56635 11.6912 8.68568C11.6912 7.92727 11.7482 6.78399 11.7932 5.60187C11.8074 5.21228 11.6117 4.98812 11.2838 4.78644C11.0837 4.66419 10.6595 4.42364 10.4128 4.42364C10.046 4.42364 8.98144 4.47243 7.97653 7.37701C7.84993 7.74412 7.60107 8.41057 7.60107 8.41057L7.62356 4.91686C7.62356 4.83523 7.58079 4.75794 7.48099 4.70264C7.31162 4.61107 6.8571 4.42364 6.45748 4.42364C6.26348 4.42364 6.16757 4.51347 6.16757 4.69056L6.13516 10.1533C6.13516 10.5692 6.14511 11.0543 6.18617 11.2663C6.22677 11.4784 6.29417 11.6516 6.37582 11.7552C6.45748 11.8554 6.55297 11.9328 6.70805 11.9673C6.85279 11.998 7.6499 12.0977 7.69096 11.7941C7.74193 11.4291 7.74365 11.0361 8.16187 9.56246C8.81424 7.27118 9.66277 6.15427 10.0624 5.75648C10.1337 5.68739 10.2132 5.68308 10.2089 5.79753C10.1907 6.30068 10.1315 7.55452 10.0909 8.62048C9.98291 11.4762 10.5005 12.004 11.2449 12.004C11.8117 12.004 12.611 11.4395 13.4695 10.0129C14.0056 9.12192 14.5236 8.25162 14.8987 7.6219C15.1557 7.86203 15.4491 8.12117 15.7407 8.39845C16.4199 9.04029 16.6419 9.65187 16.4933 10.2311C16.381 10.675 15.955 11.1316 15.1985 10.6876C14.9781 10.5589 14.8844 10.4591 14.6623 10.3122C14.5439 10.2328 14.3603 10.2103 14.2523 10.292C13.9668 10.5062 13.8056 10.777 13.7118 11.1134C13.6241 11.4417 13.9525 11.6127 14.2929 11.7634C14.5845 11.8961 15.2127 12.0122 15.6141 12.0265C17.1781 12.0796 18.4301 11.2724 19.3007 9.19318C19.4579 10.989 20.1203 12.0062 21.2725 12.0062C22.045 12.0062 22.8179 11.0093 23.1566 10.0289C23.2521 10.4284 23.3968 10.7748 23.5826 11.0707C24.4718 12.477 26.1965 12.1755 27.061 10.9808C27.3301 10.6098 27.3712 10.4772 27.3712 10.4772C27.4973 11.6049 28.4068 12.0018 28.927 12.0018C29.5119 12.0018 30.1116 11.725 30.5333 10.7748C30.5843 10.8789 30.6374 10.9769 30.6987 11.0707C31.5857 12.477 33.3104 12.1755 34.1771 10.9808C34.216 10.9217 34.2527 10.8729 34.2829 10.8258L34.3097 11.5678C34.3097 11.5678 33.8142 12.0204 33.5105 12.2994C32.175 13.5248 31.1593 14.4542 31.0841 15.5344C30.9904 16.9144 32.1076 17.4262 32.9557 17.4931C33.8531 17.5648 34.6238 17.0694 35.0965 16.3723C35.5125 15.7607 35.786 14.446 35.7657 13.1455C35.7575 12.6238 35.745 11.9634 35.7329 11.2521C36.2038 10.71 36.7339 10.0207 37.2195 9.21391C37.7514 8.33713 38.3182 7.15673 38.6077 6.23765C38.6077 6.23765 39.1032 6.24196 39.6294 6.20914C39.7988 6.19878 39.8476 6.23376 39.8148 6.35598C39.778 6.50457 39.1503 8.9284 39.7232 10.5429C40.1168 11.6473 40.9994 12.004 41.5257 12.004C42.1391 12.004 42.7267 11.5393 43.0404 10.8504C43.0792 10.926 43.1181 11.0011 43.1631 11.0707C44.05 12.477 45.7687 12.1733 46.6414 10.9808C46.8393 10.71 46.9495 10.4772 46.9495 10.4772C47.137 11.6455 48.0464 12.0062 48.5662 12.0062C49.1105 12.0062 49.6242 11.7842 50.0424 10.7973C50.0589 11.2318 50.0852 11.5864 50.1301 11.6982C50.1565 11.7678 50.3116 11.8533 50.4218 11.8961C50.919 12.0796 51.4249 11.9919 51.6103 11.9531C51.7408 11.9267 51.8427 11.8248 51.8553 11.5557C51.8915 10.8504 51.8691 9.66612 52.0834 8.78374C52.4441 7.30791 52.7785 6.7352 52.9375 6.45186C53.0257 6.29249 53.1272 6.26615 53.1293 6.4333C53.1354 6.77362 53.154 7.77262 53.2944 9.11803C53.3946 10.1045 53.5311 10.6893 53.637 10.875C53.9347 11.4028 54.3058 11.4274 54.6056 11.4274C54.7974 11.4274 55.1971 11.3743 55.1621 11.0378C55.144 10.875 55.1746 9.86177 55.5272 8.40668C55.7596 7.45475 56.145 6.59656 56.2837 6.28254C56.3368 6.16638 56.3593 6.25621 56.3593 6.27435C56.3286 6.92869 56.2633 9.07093 56.5282 10.241C56.8915 11.8291 57.9371 12.0062 58.3021 12.0062C59.079 12.0062 59.7175 11.4149 59.9314 9.85789C59.9845 9.48255 59.9068 9.19318 59.6765 9.19318ZM27.0752 8.23127C27.0325 9.05451 26.8713 9.74383 26.6146 10.2431C26.1455 11.1501 25.2222 11.4356 24.8161 10.1291C24.5206 9.18538 24.6204 7.89698 24.7448 7.20163C24.9241 6.17024 25.379 5.44075 26.0884 5.50767C26.8143 5.57939 27.169 6.5149 27.0752 8.23127ZM34.1893 8.24339C34.1486 9.01995 33.9469 9.80256 33.7265 10.2431C33.272 11.1562 32.3215 11.4416 31.928 10.1291C31.6592 9.22985 31.7223 8.07018 31.8567 7.34027C32.0303 6.39051 32.4481 5.50767 33.2007 5.50767C33.9326 5.50767 34.2934 6.31102 34.1893 8.24339ZM34.375 13.5511C34.3647 14.9721 34.1426 16.2155 33.6652 16.5783C32.9843 17.0919 32.0688 16.7044 32.2585 15.6692C32.4257 14.7518 33.2189 13.8163 34.3772 12.6726C34.3772 12.6726 34.3812 12.9334 34.375 13.5511ZM46.6579 8.25158C46.6168 9.10588 46.4272 9.77234 46.193 10.2431C45.7381 11.1562 44.7962 11.4395 44.3944 10.1291C44.1763 9.41342 44.1659 8.21877 44.3231 7.22236C44.4821 6.20694 44.9289 5.44075 45.6668 5.50767C46.3965 5.57722 46.7374 6.5149 46.6579 8.25158Z" fill="#231E1F"/>
</svg>
