<svg width="59" height="13" viewBox="0 0 59 13" fill="none" xmlns="http://www.w3.org/2000/svg">
<g clip-path="url(#clip0_14748_1977)">
<path d="M41.7035 12.7409C44.6044 12.7409 46.9561 10.4234 46.9561 7.56494C46.9561 4.70656 44.6044 2.38867 41.7035 2.38867H40.9121C43.8131 2.38867 46.1648 4.70648 46.1648 7.56494C46.1648 10.4234 43.8131 12.7409 40.9121 12.7409H41.7035Z" fill="#FF004F"/>
<path d="M40.8411 2.38867H40.0498C37.149 2.38867 34.7969 4.70648 34.7969 7.56494C34.7969 10.4234 37.149 12.7409 40.0498 12.7409H40.8411C37.9399 12.7409 35.5882 10.4234 35.5882 7.56494C35.5881 4.70656 37.9399 2.38867 40.8411 2.38867Z" fill="#00F2EA"/>
<path d="M0.907227 0.0488281V2.67246H4.00065V12.6697H7.09531V2.7433H9.61343L10.4768 0.0489104H0.907227V0.0488281ZM26.2345 0.0488281V2.67246H29.3279V12.6697H32.4226V2.7433H34.9406L35.8039 0.0489104H26.2345V0.0488281ZM11.053 1.53769C11.053 0.715589 11.7284 0.0488281 12.5628 0.0488281C13.3979 0.0488281 14.074 0.715589 14.074 1.53769C14.074 2.35988 13.3983 3.02664 12.5628 3.02664C11.7284 3.02623 11.053 2.35988 11.053 1.53769ZM11.053 4.09049H14.074V12.6697H11.053V4.09049ZM15.3694 0.0488281V12.6696H18.3916V9.40835L19.3271 8.55676L22.2767 12.7404H25.5143L21.2688 6.6428L25.0824 2.95539H21.413L18.3916 5.93321V0.0488281H15.3694ZM47.9632 0.0488281V12.6696H50.9858V9.40835L51.9209 8.55676L54.8713 12.7404H58.1094L53.8638 6.6428L57.6772 2.95539H54.008L50.9858 5.93321V0.0488281H47.9632Z" fill="black"/>
<path d="M40.9123 12.7409C43.8131 12.7409 46.1653 10.4234 46.1653 7.56494C46.1653 4.70656 43.8131 2.38867 40.9123 2.38867H40.8406C37.9396 2.38867 35.5879 4.70648 35.5879 7.56494C35.5879 10.4234 37.9396 12.7409 40.8406 12.7409H40.9123ZM38.3221 7.56494C38.3221 6.1745 39.4662 5.04822 40.8771 5.04822C42.2869 5.04822 43.431 6.1745 43.431 7.56494C43.431 8.95538 42.2869 10.0823 40.8771 10.0823C39.4662 10.0821 38.3221 8.95538 38.3221 7.56494Z" fill="black"/>
</g>
<defs>
<clipPath id="clip0_14748_1977">
<rect width="58" height="13" fill="white" transform="translate(0.200195)"/>
</clipPath>
</defs>
</svg>
